<?xml version="1.0" encoding="UTF-8"?>
<!DOCTYPE svg PUBLIC "-//W3C//DTD SVG 1.1//EN" "http://www.w3.org/Graphics/SVG/1.1/DTD/svg11.dtd">
<!-- Creator: CorelDRAW -->
<svg xmlns="http://www.w3.org/2000/svg" xml:space="preserve" width="199.24mm" height="30.207mm" version="1.1" style="shape-rendering:geometricPrecision; text-rendering:geometricPrecision; image-rendering:optimizeQuality; fill-rule:evenodd; clip-rule:evenodd"
viewBox="0 0 19977.02 3028.74"
 xmlns:xlink="http://www.w3.org/1999/xlink"
 xmlns:xodm="http://www.corel.com/coreldraw/odm/2003">
 <defs>
  <style type="text/css">
   <![CDATA[
    .fil2 {fill:white}
    .fil1 {fill:#3F5D73}
    .fil0 {fill:#3F5D73;fill-rule:nonzero}
   ]]>
  </style>
 </defs>
 <g id="Camada_x0020_1">
  <metadata id="CorelCorpID_0Corel-Layer"/>
  <g id="_105553359798368">
   <path class="fil0" d="M3705.03 2231.71l1094.32 -1298.57 -1054.7 0 0 -420.66 1630.82 0 0 420.66 -1072.99 1298.57 1109.57 0 0 438.95 -1707.03 0 0 -438.95zm2715.18 -1719.22l393.22 0 938.86 2158.18 -536.49 0 -185.94 -457.24 -838.26 0 -179.86 457.24 -524.3 0 932.78 -2158.18zm182.9 627.95l-262.16 670.61 527.36 0 -265.2 -670.61zm2748.71 -67.07c-46.74,-56.89 -104.16,-100.59 -172.23,-131.08 -68.08,-30.48 -146.83,-45.71 -236.25,-45.71 -89.42,0 -172.22,17.27 -248.43,51.82 -76.21,34.54 -142.26,82.81 -198.14,144.78 -55.89,61.98 -99.58,135.65 -131.08,221.01 -31.5,85.35 -47.25,177.81 -47.25,277.39 0,101.61 15.74,194.59 47.25,278.92 31.49,84.33 74.68,157.49 129.54,219.47 54.88,61.98 119.4,110.24 193.57,144.79 74.18,34.55 153.94,51.82 239.28,51.82 97.55,0 183.91,-20.32 259.11,-60.96 75.19,-40.64 137.16,-97.55 185.94,-170.7l396.27 295.68c-91.44,128.02 -207.28,222.52 -347.5,283.49 -140.22,60.96 -284.5,91.44 -432.85,91.44 -168.68,0 -324.14,-26.42 -466.4,-79.26 -142.24,-52.83 -265.18,-128.53 -368.83,-227.09 -103.65,-98.56 -184.42,-217.95 -242.34,-358.17 -57.91,-140.22 -86.87,-296.7 -86.87,-469.44 0,-172.74 28.96,-329.21 86.87,-469.43 57.92,-140.22 138.7,-259.61 242.34,-358.17 103.65,-98.56 226.59,-174.26 368.83,-227.09 142.26,-52.85 297.72,-79.26 466.4,-79.26 60.96,0 124.47,5.58 190.52,16.76 66.05,11.17 131.07,28.96 195.09,53.34 64.01,24.38 125.48,56.9 184.42,97.55 58.93,40.65 111.77,90.43 158.5,149.36l-365.78 298.73zm648.46 -560.88l475.53 0 0 804.75 923.61 0 0 -804.75 475.53 0 0 2158.18 -475.53 0 0 -932.78 -923.61 0 0 932.78 -475.53 0 0 -2158.18zm3696.72 560.88c-46.74,-56.89 -104.16,-100.59 -172.23,-131.08 -68.08,-30.48 -146.82,-45.71 -236.24,-45.71 -89.43,0 -172.23,17.27 -248.44,51.82 -76.2,34.54 -142.25,82.81 -198.14,144.78 -55.89,61.98 -99.57,135.65 -131.08,221.01 -31.49,85.35 -47.25,177.81 -47.25,277.39 0,101.61 15.75,194.59 47.25,278.92 31.5,84.33 74.68,157.49 129.55,219.47 54.87,61.98 119.4,110.24 193.56,144.79 74.18,34.55 153.94,51.82 239.28,51.82 97.55,0 183.91,-20.32 259.11,-60.96 75.19,-40.64 137.17,-97.55 185.94,-170.7l396.27 295.68c-91.44,128.02 -207.28,222.52 -347.5,283.49 -140.22,60.96 -284.49,91.44 -432.85,91.44 -168.68,0 -324.14,-26.42 -466.39,-79.26 -142.25,-52.83 -265.19,-128.53 -368.84,-227.09 -103.65,-98.56 -184.42,-217.95 -242.33,-358.17 -57.92,-140.22 -86.88,-296.7 -86.88,-469.44 0,-172.74 28.96,-329.21 86.88,-469.43 57.91,-140.22 138.69,-259.61 242.33,-358.17 103.65,-98.56 226.59,-174.26 368.84,-227.09 142.25,-52.85 297.71,-79.26 466.39,-79.26 60.96,0 124.47,5.58 190.52,16.76 66.05,11.17 131.07,28.96 195.09,53.34 64.01,24.38 125.48,56.9 184.42,97.55 58.94,40.65 111.77,90.43 158.51,149.36l-365.79 298.73zm1358.71 -560.88l393.22 0 938.86 2158.18 -536.49 0 -185.93 -457.24 -838.27 0 -179.86 457.24 -524.29 0 932.77 -2158.18zm182.9 627.95l-262.16 670.61 527.36 0 -265.2 -670.61zm1337.37 -627.95l835.23 0c109.73,0 213.88,10.67 312.44,32 98.56,21.35 184.93,56.91 259.11,106.69 74.18,49.79 133.1,116.85 176.8,201.18 43.69,84.33 65.53,189.5 65.53,315.5 0,152.41 -39.63,281.96 -118.89,388.65 -79.25,106.69 -195.09,174.26 -347.49,202.72l548.69 911.43 -570.02 0 -451.15 -862.67 -234.71 0 0 862.67 -475.53 0 0 -2158.18zm475.53 893.15l280.43 0c42.67,0 87.89,-1.53 135.65,-4.58 47.76,-3.05 90.94,-12.19 129.55,-27.43 38.61,-15.24 70.62,-39.11 96.01,-71.63 25.4,-32.52 38.11,-78.25 38.11,-137.17 0,-54.87 -11.19,-98.56 -33.54,-131.08 -22.35,-32.52 -50.8,-57.41 -85.35,-74.68 -34.55,-17.28 -74.18,-28.96 -118.89,-35.05 -44.71,-6.1 -88.39,-9.15 -131.08,-9.15l-310.92 0 0 490.78zm1834.23 -472.49l-615.74 0 0 -420.66 1707.03 0 0 420.66 -615.75 0 0 1737.52 -475.53 0 0 -1737.52z"/>
   <rect class="fil1" x="0" y="0" width="3028.74" height="3028.74" rx="168.92" ry="168.92"/>
   <rect class="fil2" x="415.36" y="416.17" width="2197.22" height="2197.22"/>
   <polygon class="fil1" points="834.1,1823.37 1622.16,1823.37 834.9,1191.35 834.9,1191.35 834.9,838.09 2172.63,838.09 2172.63,1191.35 1375.44,1191.35 2171.83,1823.37 2171.83,2176.63 834.1,2176.63 "/>
  </g>
 </g>
</svg>
